<svg width="107" height="80" viewBox="0 0 107 80" fill="none" xmlns="http://www.w3.org/2000/svg">
<rect x="106.667" y="80" width="106.667" height="80" rx="14.2222" transform="rotate(180 106.667 80)" fill="#333333"/>
<path d="M10.8089 51.6667L10.8089 34.3867H16.2489L16.2489 51.6667H10.8089ZM21.8667 51.6667V41.5689C21.8667 40.6919 21.5941 40.0163 21.0489 39.5422C20.5274 39.0445 19.8756 38.7956 19.0934 38.7956C18.5482 38.7956 18.0623 38.9141 17.6356 39.1511C17.2089 39.3645 16.8652 39.6726 16.6045 40.0756C16.3674 40.4785 16.2489 40.9763 16.2489 41.5689L14.1511 40.6445C14.1511 39.2697 14.4474 38.0963 15.04 37.1245C15.6326 36.1289 16.4385 35.3704 17.4578 34.8489C18.4771 34.3037 19.6267 34.0311 20.9067 34.0311C22.1156 34.0311 23.1941 34.3037 24.1423 34.8489C25.1141 35.3941 25.8845 36.1526 26.4534 37.1245C27.0223 38.0963 27.3067 39.2578 27.3067 40.6089L27.3067 51.6667H21.8667ZM32.9245 51.6667V41.5689C32.9245 40.6919 32.6519 40.0163 32.1067 39.5422C31.5852 39.0445 30.9334 38.7956 30.1511 38.7956C29.606 38.7956 29.12 38.9141 28.6934 39.1511C28.2667 39.3645 27.923 39.6726 27.6623 40.0756C27.4252 40.4785 27.3067 40.9763 27.3067 41.5689L24.1778 41.1422C24.2252 39.6726 24.5689 38.4163 25.2089 37.3734C25.8726 36.3067 26.7378 35.4889 27.8045 34.92C28.8948 34.3274 30.1156 34.0311 31.4667 34.0311C32.7941 34.0311 33.9674 34.3156 34.9867 34.8845C36.0297 35.4296 36.8474 36.2237 37.44 37.2667C38.0563 38.2859 38.3645 39.5185 38.3645 40.9645V51.6667H32.9245ZM44.375 57.32L44.375 53.0534H62.3306L62.3306 57.32H44.375ZM68.6909 51.6667V34.3867L74.1309 34.3867L74.1309 51.6667H68.6909ZM79.7486 51.6667L79.7486 41.5689C79.7486 40.6919 79.4761 40.0163 78.9309 39.5422C78.4094 39.0445 77.7575 38.7956 76.9753 38.7956C76.4301 38.7956 75.9442 38.9141 75.5175 39.1511C75.0909 39.3645 74.7472 39.6726 74.4864 40.0756C74.2494 40.4785 74.1309 40.9763 74.1309 41.5689L72.0331 40.6445C72.0331 39.2697 72.3294 38.0963 72.922 37.1245C73.5146 36.1289 74.3205 35.3704 75.3398 34.8489C76.359 34.3037 77.5086 34.0311 78.7887 34.0311C79.9975 34.0311 81.0761 34.3037 82.0242 34.8489C82.9961 35.3941 83.7664 36.1526 84.3353 37.1245C84.9042 38.0963 85.1887 39.2578 85.1887 40.6089L85.1887 51.6667H79.7486ZM90.8064 51.6667L90.8064 41.5689C90.8064 40.6919 90.5338 40.0163 89.9887 39.5422C89.4672 39.0445 88.8153 38.7956 88.0331 38.7956C87.4879 38.7956 87.002 38.9141 86.5753 39.1511C86.1487 39.3645 85.8049 39.6726 85.5442 40.0756C85.3072 40.4785 85.1887 40.9763 85.1887 41.5689L82.0598 41.1422C82.1072 39.6726 82.4509 38.4163 83.0909 37.3734C83.7546 36.3067 84.6198 35.4889 85.6864 34.92C86.7768 34.3274 87.9975 34.0311 89.3487 34.0311C90.6761 34.0311 91.8494 34.3156 92.8687 34.8845C93.9116 35.4296 94.7294 36.2237 95.322 37.2667C95.9383 38.2859 96.2464 39.5185 96.2464 40.9645L96.2464 51.6667H90.8064Z" fill="white"/>
</svg>
