<svg width="748" height="132" viewBox="0 0 748 132" fill="none" xmlns="http://www.w3.org/2000/svg">
<path d="M9.2928 111.2V44.32H21.9648V111.2H9.2928ZM54.4896 111.2V70.7904C54.4896 65.8155 52.9408 61.92 49.8432 59.104C46.8395 56.1941 43.0379 54.7392 38.4384 54.7392C35.3408 54.7392 32.5717 55.3963 30.1312 56.7104C27.6907 58.0245 25.7195 59.8549 24.2176 62.2016C22.7157 64.5483 21.9648 67.3643 21.9648 70.6496L16.7552 68.1152C16.7552 63.0464 17.8347 58.6347 19.9936 54.88C22.2464 51.1253 25.2971 48.2155 29.1456 46.1504C32.9941 43.9915 37.312 42.912 42.0992 42.912C46.7925 42.912 51.0165 43.9445 54.7712 46.0096C58.6197 48.0747 61.6235 50.9845 63.7824 54.7392C66.0352 58.4939 67.1616 62.9525 67.1616 68.1152V111.2H54.4896ZM99.6864 111.2V70.7904C99.6864 65.8155 98.1376 61.92 95.04 59.104C92.0363 56.1941 88.2816 54.7392 83.776 54.7392C80.6784 54.7392 77.8624 55.3963 75.328 56.7104C72.8875 58.0245 70.9163 59.8549 69.4144 62.2016C67.9125 64.5483 67.1616 67.3643 67.1616 70.6496L59.9808 68.1152C60.2624 62.9525 61.6235 58.5408 64.064 54.88C66.5984 51.1253 69.8368 48.2155 73.7792 46.1504C77.7216 43.9915 82.0395 42.912 86.7328 42.912C91.6139 42.912 95.9787 43.9445 99.8272 46.0096C103.676 48.0747 106.726 50.9845 108.979 54.7392C111.326 58.4939 112.499 62.9995 112.499 68.256V111.2H99.6864ZM177.896 112.608C171.326 112.608 165.412 111.059 160.156 107.962C154.899 104.864 150.722 100.687 147.624 95.4304C144.527 90.08 142.978 84.1195 142.978 77.5488C142.978 71.072 144.527 65.2523 147.624 60.0896C150.722 54.8331 154.899 50.656 160.156 47.5584C165.412 44.4608 171.326 42.912 177.896 42.912C184.373 42.912 190.24 44.4608 195.496 47.5584C200.847 50.5621 205.071 54.6923 208.168 59.9488C211.266 65.2053 212.815 71.072 212.815 77.5488C212.815 84.1195 211.266 90.08 208.168 95.4304C205.071 100.687 200.847 104.864 195.496 107.962C190.24 111.059 184.373 112.608 177.896 112.608ZM177.896 100.358C182.12 100.358 185.875 99.3728 189.16 97.4016C192.446 95.4304 195.027 92.7552 196.904 89.376C198.782 85.9029 199.72 81.9605 199.72 77.5488C199.72 73.2309 198.735 69.3824 196.764 66.0032C194.886 62.624 192.305 59.9957 189.02 58.1184C185.828 56.1472 182.12 55.1616 177.896 55.1616C173.672 55.1616 169.918 56.1472 166.632 58.1184C163.347 59.9957 160.766 62.624 158.888 66.0032C157.011 69.3824 156.072 73.2309 156.072 77.5488C156.072 81.9605 157.011 85.9029 158.888 89.376C160.766 92.7552 163.347 95.4304 166.632 97.4016C169.918 99.3728 173.672 100.358 177.896 100.358ZM252.909 111.2V16.3008H265.581V111.2H252.909ZM236.435 55.8656V44.32H282.054V55.8656H236.435ZM312.209 111.2V44.32H324.881V111.2H312.209ZM318.545 30.944C316.198 30.944 314.274 30.1931 312.772 28.6912C311.27 27.0955 310.519 25.1243 310.519 22.7776C310.519 20.5248 311.27 18.6475 312.772 17.1456C314.274 15.5499 316.198 14.752 318.545 14.752C320.891 14.752 322.816 15.5499 324.317 17.1456C325.819 18.6475 326.57 20.5248 326.57 22.7776C326.57 25.1243 325.819 27.0955 324.317 28.6912C322.816 30.1931 320.891 30.944 318.545 30.944ZM391.709 112.608C385.138 112.608 379.225 111.059 373.968 107.962C368.712 104.864 364.535 100.687 361.437 95.4304C358.339 90.08 356.791 84.1195 356.791 77.5488C356.791 71.072 358.339 65.2523 361.437 60.0896C364.535 54.8331 368.712 50.656 373.968 47.5584C379.225 44.4608 385.138 42.912 391.709 42.912C398.186 42.912 404.052 44.4608 409.309 47.5584C414.659 50.5621 418.883 54.6923 421.981 59.9488C425.079 65.2053 426.627 71.072 426.627 77.5488C426.627 84.1195 425.079 90.08 421.981 95.4304C418.883 100.687 414.659 104.864 409.309 107.962C404.052 111.059 398.186 112.608 391.709 112.608ZM391.709 100.358C395.933 100.358 399.688 99.3728 402.973 97.4016C406.258 95.4304 408.84 92.7552 410.717 89.376C412.594 85.9029 413.533 81.9605 413.533 77.5488C413.533 73.2309 412.547 69.3824 410.576 66.0032C408.699 62.624 406.117 59.9957 402.832 58.1184C399.641 56.1472 395.933 55.1616 391.709 55.1616C387.485 55.1616 383.73 56.1472 380.445 58.1184C377.16 59.9957 374.578 62.624 372.701 66.0032C370.824 69.3824 369.885 73.2309 369.885 77.5488C369.885 81.9605 370.824 85.9029 372.701 89.376C374.578 92.7552 377.16 95.4304 380.445 97.4016C383.73 99.3728 387.485 100.358 391.709 100.358ZM505.814 111.2V72.1984C505.814 67.1296 504.218 62.9525 501.027 59.6672C497.835 56.3819 493.705 54.7392 488.637 54.7392C485.257 54.7392 482.254 55.4901 479.625 56.992C476.997 58.4939 474.932 60.5589 473.43 63.1872C471.928 65.8155 471.177 68.8192 471.177 72.1984L465.968 69.2416C465.968 64.1728 467.094 59.6672 469.347 55.7248C471.6 51.7824 474.744 48.6848 478.781 46.432C482.817 44.0853 487.369 42.912 492.438 42.912C497.507 42.912 501.966 44.1792 505.814 46.7136C509.757 49.248 512.854 52.5803 515.107 56.7104C517.36 60.7467 518.486 65.0645 518.486 69.664V111.2H505.814ZM458.505 111.2V44.32H471.177V111.2H458.505Z" fill="#333333"/>
<rect x="748" y="132" width="176" height="132" rx="23.4667" transform="rotate(180 748 132)" fill="#333333"/>
<path d="M589.835 85V56.488L598.811 56.488V85H589.835ZM608.08 85V68.3387C608.08 66.8916 607.63 65.7769 606.731 64.9947C605.87 64.1733 604.795 63.7627 603.504 63.7627C602.604 63.7627 601.803 63.9582 601.099 64.3493C600.395 64.7013 599.828 65.2098 599.397 65.8747C599.006 66.5396 598.811 67.3609 598.811 68.3387L595.349 66.8133C595.349 64.5449 595.838 62.6089 596.816 61.0053C597.794 59.3627 599.124 58.1111 600.805 57.2507C602.487 56.3511 604.384 55.9013 606.496 55.9013C608.491 55.9013 610.27 56.3511 611.835 57.2507C613.438 58.1502 614.709 59.4018 615.648 61.0053C616.587 62.6089 617.056 64.5253 617.056 66.7547V85H608.08ZM626.325 85V68.3387C626.325 66.8916 625.876 65.7769 624.976 64.9947C624.116 64.1733 623.04 63.7627 621.749 63.7627C620.85 63.7627 620.048 63.9582 619.344 64.3493C618.64 64.7013 618.073 65.2098 617.643 65.8747C617.252 66.5396 617.056 67.3609 617.056 68.3387L611.893 67.6347C611.972 65.2098 612.539 63.1369 613.595 61.416C614.69 59.656 616.117 58.3067 617.877 57.368C619.677 56.3902 621.691 55.9013 623.92 55.9013C626.11 55.9013 628.046 56.3707 629.728 57.3093C631.449 58.2089 632.798 59.5191 633.776 61.24C634.793 62.9218 635.301 64.9556 635.301 67.3413V85H626.325ZM645.219 94.328V87.288H674.845V94.328H645.219ZM685.34 85V56.488H694.316V85H685.34ZM703.585 85V68.3387C703.585 66.8916 703.136 65.7769 702.236 64.9947C701.376 64.1733 700.3 63.7627 699.009 63.7627C698.11 63.7627 697.308 63.9582 696.604 64.3493C695.9 64.7013 695.333 65.2098 694.903 65.8747C694.512 66.5396 694.316 67.3609 694.316 68.3387L690.855 66.8133C690.855 64.5449 691.344 62.6089 692.321 61.0053C693.299 59.3627 694.629 58.1111 696.311 57.2507C697.992 56.3511 699.889 55.9013 702.001 55.9013C703.996 55.9013 705.776 56.3511 707.34 57.2507C708.944 58.1502 710.215 59.4018 711.153 61.0053C712.092 62.6089 712.561 64.5253 712.561 66.7547V85H703.585ZM721.831 85V68.3387C721.831 66.8916 721.381 65.7769 720.481 64.9947C719.621 64.1733 718.545 63.7627 717.255 63.7627C716.355 63.7627 715.553 63.9582 714.849 64.3493C714.145 64.7013 713.578 65.2098 713.148 65.8747C712.757 66.5396 712.561 67.3609 712.561 68.3387L707.399 67.6347C707.477 65.2098 708.044 63.1369 709.1 61.416C710.195 59.656 711.623 58.3067 713.383 57.368C715.182 56.3902 717.196 55.9013 719.425 55.9013C721.616 55.9013 723.552 56.3707 725.233 57.3093C726.954 58.2089 728.304 59.5191 729.281 61.24C730.298 62.9218 730.807 64.9556 730.807 67.3413V85H721.831Z" fill="white"/>
</svg>
